solid OpenSCAD_Model
  facet normal -1 0 0
    outer loop
      vertex -20 -20 0
      vertex -20 -20 5
      vertex -20 20 0
    endloop
  endfacet
  facet normal -1 0 0
    outer loop
      vertex -20 20 0
      vertex -20 -20 5
      vertex -20 20 5
    endloop
  endfacet
  facet normal 0 -1 0
    outer loop
      vertex -20 -20 5
      vertex -20 -20 0
      vertex 20 -20 0
    endloop
  endfacet
  facet normal 0 -1 0
    outer loop
      vertex 20 -20 5
      vertex -20 -20 5
      vertex 20 -20 0
    endloop
  endfacet
  facet normal 0 0 -1
    outer loop
      vertex -15 -15 0
      vertex 15 -15 0
      vertex 20 -20 0
    endloop
  endfacet
  facet normal 0 0 -1
    outer loop
      vertex -15 15 0
      vertex -20 20 0
      vertex 20 20 0
    endloop
  endfacet
  facet normal 0 0 -1
    outer loop
      vertex -20 -20 0
      vertex -20 20 0
      vertex -15 15 0
    endloop
  endfacet
  facet normal 0 0 -1
    outer loop
      vertex 15 15 0
      vertex -15 15 0
      vertex 20 20 0
    endloop
  endfacet
  facet normal 0 0 -1
    outer loop
      vertex -20 -20 0
      vertex -15 15 0
      vertex -15 -15 0
    endloop
  endfacet
  facet normal 0 0 -1
    outer loop
      vertex -20 -20 0
      vertex -15 -15 0
      vertex 20 -20 0
    endloop
  endfacet
  facet normal 0 0 -1
    outer loop
      vertex 20 -20 0
      vertex 15 -15 0
      vertex 20 20 0
    endloop
  endfacet
  facet normal 0 0 -1
    outer loop
      vertex 15 -15 0
      vertex 15 15 0
      vertex 20 20 0
    endloop
  endfacet
  facet normal 0 1 0
    outer loop
      vertex -20 20 0
      vertex -20 20 5
      vertex 20 20 0
    endloop
  endfacet
  facet normal 0 1 0
    outer loop
      vertex 20 20 0
      vertex -20 20 5
      vertex 20 20 5
    endloop
  endfacet
  facet normal 0 0 1
    outer loop
      vertex -20 20 5
      vertex -20 -20 5
      vertex 20 -20 5
    endloop
  endfacet
  facet normal 0 0 1
    outer loop
      vertex 20 20 5
      vertex -20 20 5
      vertex 20 -20 5
    endloop
  endfacet
  facet normal 1 0 0
    outer loop
      vertex 20 -20 5
      vertex 20 -20 0
      vertex 20 20 0
    endloop
  endfacet
  facet normal 1 0 0
    outer loop
      vertex 20 20 5
      vertex 20 -20 5
      vertex 20 20 0
    endloop
  endfacet
  facet normal -1 0 0
    outer loop
      vertex -15 -15 -3.5
      vertex -15 -15 0
      vertex -15 15 -3.5
    endloop
  endfacet
  facet normal -1 0 0
    outer loop
      vertex -15 15 -3.5
      vertex -15 -15 0
      vertex -15 15 0
    endloop
  endfacet
  facet normal 0 1 0
    outer loop
      vertex -15 15 -3.5
      vertex -15 15 0
      vertex 15 15 -3.5
    endloop
  endfacet
  facet normal 0 1 0
    outer loop
      vertex 15 15 -3.5
      vertex -15 15 0
      vertex 15 15 0
    endloop
  endfacet
  facet normal 1 0 0
    outer loop
      vertex 15 -15 0
      vertex 15 -15 -3.5
      vertex 15 15 -3.5
    endloop
  endfacet
  facet normal 1 0 0
    outer loop
      vertex 15 15 0
      vertex 15 -15 0
      vertex 15 15 -3.5
    endloop
  endfacet
  facet normal 0 -1 0
    outer loop
      vertex -15 -15 0
      vertex -15 -15 -3.5
      vertex 15 -15 -3.5
    endloop
  endfacet
  facet normal 0 -1 0
    outer loop
      vertex 15 -15 0
      vertex -15 -15 0
      vertex 15 -15 -3.5
    endloop
  endfacet
  facet normal 0 0 -1
    outer loop
      vertex -15 -15 -3.5
      vertex -15 15 -3.5
      vertex 15 -15 -3.5
    endloop
  endfacet
  facet normal 0 0 -1
    outer loop
      vertex 15 -15 -3.5
      vertex -15 15 -3.5
      vertex 15 15 -3.5
    endloop
  endfacet
endsolid OpenSCAD_Model
